<svg width="18" height="18" viewBox="0 0 18 18" fill="none" xmlns="http://www.w3.org/2000/svg">
<path d="M16.23 12.26L13.69 11.97C13.3913 11.9349 13.0886 11.968 12.8046 12.0667C12.5205 12.1654 12.2625 12.3273 12.05 12.54L10.21 14.38C7.3714 12.9359 5.06407 10.6286 3.62001 7.79001L5.47001 5.94001C5.90001 5.51001 6.11001 4.91001 6.04001 4.30001L5.75001 1.78001C5.69353 1.2921 5.45948 0.842035 5.09247 0.515606C4.72547 0.189176 4.25118 0.00920969 3.76001 0.0100124H2.03001C0.90001 0.0100124 -0.0399899 0.950012 0.0300101 2.08001C0.56001 10.62 7.39001 17.44 15.92 17.97C17.05 18.04 17.99 17.1 17.99 15.97V14.24C18 13.23 17.24 12.38 16.23 12.26Z" fill="white"/>
</svg>
